<?xml version="1.0" encoding="UTF-8" standalone="no"?>
<!-- Created with Inkscape (http://www.inkscape.org/) -->

<svg
   width="56.057335mm"
   height="55.895473mm"
   viewBox="0 0 56.057335 55.895473"
   version="1.1"
   id="svg1"
   xml:space="preserve"
   xmlns:inkscape="http://www.inkscape.org/namespaces/inkscape"
   xmlns:sodipodi="http://sodipodi.sourceforge.net/DTD/sodipodi-0.dtd"
   xmlns="http://www.w3.org/2000/svg"
   xmlns:svg="http://www.w3.org/2000/svg"><sodipodi:namedview
     id="namedview1"
     pagecolor="#ffffff"
     bordercolor="#000000"
     borderopacity="0.25"
     inkscape:showpageshadow="2"
     inkscape:pageopacity="0.0"
     inkscape:pagecheckerboard="0"
     inkscape:deskcolor="#d1d1d1"
     inkscape:document-units="mm" /><defs
     id="defs1" /><g
     inkscape:label="Layer 1"
     inkscape:groupmode="layer"
     id="layer1"
     transform="translate(-241.01607,-119.74463)"><g
       id="g18"><g
         id="g17"
         transform="translate(-16.818533,-5.9247104)"><path
           style="clip-rule:evenodd;fill-rule:evenodd;stroke-width:0.264583;image-rendering:optimizeQuality;shape-rendering:geometricPrecision;text-rendering:geometricPrecision"
           fill="#ff0602"
           d="m 273.27193,150.60857 c 0.26353,3.92219 0.35164,7.89094 0.26459,11.90625 -4.71646,0.26379 -9.47896,0.3519 -14.2875,0.26459 -3.74915,-13.4919 -0.045,-24.384 11.1125,-32.67604 8.12403,-4.83323 16.6788,-5.71519 25.66458,-2.64584 2.91783,1.15808 5.56366,2.74558 7.9375,4.7625 -12.30842,6.11003 -24.56736,12.28355 -36.77708,18.52084 0.14472,0.24474 0.32094,0.46513 0.52916,0.66145 1.85209,-0.88185 3.70417,-1.76397 5.55625,-2.64583 0.23443,0.21828 0.32253,0.48287 0.26459,0.79375 -2.07672,0.55854 -4.01691,1.39647 -5.82084,2.51354 0.0881,0.13229 0.17648,0.26459 0.26459,0.39688 1.73328,-0.7247 3.49726,-1.34197 5.29166,-1.85209 z"
           id="path2" /><path
           style="clip-rule:evenodd;fill-rule:evenodd;stroke-width:0.264583;image-rendering:optimizeQuality;shape-rendering:geometricPrecision;text-rendering:geometricPrecision"
           fill="#ff1910"
           d="m 305.81568,133.93982 c 0.66199,0.44186 1.19116,1.01495 1.5875,1.7198 -7.15168,2.95936 -14.29543,5.9137 -21.43125,8.86354 -0.33337,-0.49027 -0.33337,-0.97526 0,-1.45521 6.65269,-3.02313 13.26727,-6.06584 19.84375,-9.12813 z"
           id="path3" /><path
           style="clip-rule:evenodd;fill-rule:evenodd;stroke-width:0.264583;image-rendering:optimizeQuality;shape-rendering:geometricPrecision;text-rendering:geometricPrecision"
           fill="#ff0201"
           d="m 312.43027,162.51482 c -8.81936,0 -17.63898,0 -26.45834,0 0,-5.46814 0,-10.93602 0,-16.40416 7.62688,-2.77813 15.2998,-5.51207 23.01875,-8.20209 5.05196,7.62477 6.1984,15.82685 3.43959,24.60625 z"
           id="path4" /><path
           style="clip-rule:evenodd;fill-rule:evenodd;stroke-width:0.264583;image-rendering:optimizeQuality;shape-rendering:geometricPrecision;text-rendering:geometricPrecision"
           fill="#ff0a04"
           d="m 284.11985,143.72941 c 0.52652,6.25554 0.703,12.60554 0.52917,19.05 -0.35269,0 -0.70565,0 -1.05834,0 -0.16959,-6.41059 0.007,-12.76059 0.52917,-19.05 z"
           id="path5" /><path
           style="clip-rule:evenodd;fill-rule:evenodd;stroke-width:0.264583;image-rendering:optimizeQuality;shape-rendering:geometricPrecision;text-rendering:geometricPrecision"
           fill="#ff4544"
           d="m 281.7386,145.05232 c 0.18759,-0.23918 0.45217,-0.32728 0.79375,-0.26458 0,5.99731 0,11.99436 0,17.99167 -0.42307,0.0709 -0.77576,-0.0175 -1.05833,-0.26459 0.26458,0 0.52916,0 0.79375,0 0.17356,-5.91581 -0.003,-11.73665 -0.52917,-17.4625 z"
           id="path6" /><path
           style="clip-rule:evenodd;fill-rule:evenodd;stroke-width:0.264583;image-rendering:optimizeQuality;shape-rendering:geometricPrecision;text-rendering:geometricPrecision"
           fill="#fe0000"
           d="m 281.7386,145.05232 c 0.52626,5.72585 0.70273,11.54669 0.52917,17.4625 -0.26459,0 -0.52917,0 -0.79375,0 -0.0876,-5.8666 7.9e-4,-11.68743 0.26458,-17.4625 z"
           id="path7" /><path
           style="clip-rule:evenodd;fill-rule:evenodd;stroke-width:0.264583;image-rendering:optimizeQuality;shape-rendering:geometricPrecision;text-rendering:geometricPrecision"
           fill="#ff0000"
           d="m 279.88652,145.84607 c 0.26379,5.51048 0.35216,11.06673 0.26458,16.66875 -0.26458,0 -0.52917,0 -0.79375,0 0,-5.46814 0,-10.93602 0,-16.40416 0.17648,-0.0881 0.35269,-0.17648 0.52917,-0.26459 z"
           id="path8" /><path
           style="clip-rule:evenodd;fill-rule:evenodd;stroke-width:0.264583;image-rendering:optimizeQuality;shape-rendering:geometricPrecision;text-rendering:geometricPrecision"
           fill="#ff9f9f"
           d="m 279.88652,145.84607 c 0.0159,-0.14366 0.10398,-0.23177 0.26458,-0.26458 0.35137,5.68748 0.35137,11.33211 0,16.93333 0.0876,-5.60202 -7.9e-4,-11.15827 -0.26458,-16.66875 z"
           id="path9" /><path
           style="clip-rule:evenodd;fill-rule:evenodd;stroke-width:0.264583;image-rendering:optimizeQuality;shape-rendering:geometricPrecision;text-rendering:geometricPrecision"
           fill="#ff4c4b"
           d="m 279.35735,146.11066 c 0,5.46814 0,10.93602 0,16.40416 0.26458,0 0.52917,0 0.79375,0 -0.28257,0.24713 -0.63526,0.3355 -1.05833,0.26459 -0.0876,-5.60202 7.9e-4,-11.15827 0.26458,-16.66875 z"
           id="path10" /><path
           style="clip-rule:evenodd;fill-rule:evenodd;stroke-width:0.264583;image-rendering:optimizeQuality;shape-rendering:geometricPrecision;text-rendering:geometricPrecision"
           fill="#ff0904"
           d="m 277.76985,146.63982 c 0.26379,5.334 0.3519,10.71378 0.26458,16.13959 -0.35269,0 -0.70564,0 -1.05833,0 -0.0442,-5.20409 0,-10.40765 0.13229,-15.61042 0.26326,-0.14975 0.48366,-0.32623 0.66146,-0.52917 z"
           id="path11" /><path
           style="clip-rule:evenodd;fill-rule:evenodd;stroke-width:0.264583;image-rendering:optimizeQuality;shape-rendering:geometricPrecision;text-rendering:geometricPrecision"
           fill="#ff0100"
           d="m 275.3886,147.96274 c 0.26379,4.80457 0.3519,9.65518 0.26458,14.55208 -0.26458,0 -0.52916,0 -0.79375,0 -0.17303,-4.94691 0.003,-9.79752 0.52917,-14.55208 z"
           id="path12" /><path
           style="clip-rule:evenodd;fill-rule:evenodd;stroke-width:0.264583;image-rendering:optimizeQuality;shape-rendering:geometricPrecision;text-rendering:geometricPrecision"
           fill="#ff6060"
           d="m 275.3886,147.96274 c 0.0159,-0.14367 0.10398,-0.23177 0.26458,-0.26458 0.26459,5.02391 0.35269,10.05099 0.26459,15.08125 -0.42307,0.0709 -0.77576,-0.0175 -1.05834,-0.26459 0.26459,0 0.52917,0 0.79375,0 0.0873,-4.8969 -7.9e-4,-9.74751 -0.26458,-14.55208 z"
           id="path13" /><path
           style="clip-rule:evenodd;fill-rule:evenodd;stroke-width:0.264583;image-rendering:optimizeQuality;shape-rendering:geometricPrecision;text-rendering:geometricPrecision"
           fill="#ffbbbb"
           d="m 273.27193,150.60857 c 0.0159,-0.14366 0.10399,-0.23177 0.26459,-0.26458 0.35084,4.09972 0.35084,8.15658 0,12.17083 0.087,-4.01531 -10e-4,-7.98406 -0.26459,-11.90625 z"
           id="path14" /><path
           style="clip-rule:evenodd;fill-rule:evenodd;stroke-width:0.264583;image-rendering:optimizeQuality;shape-rendering:geometricPrecision;text-rendering:geometricPrecision"
           fill="#ff7776"
           d="m 285.97193,146.11066 c 0,5.46814 0,10.93602 0,16.40416 8.81936,0 17.63898,0 26.45834,0 -8.86249,0.26406 -17.77021,0.35243 -26.72292,0.26459 -0.0876,-5.60202 7.9e-4,-11.15827 0.26458,-16.66875 z"
           id="path15" /><path
           style="clip-rule:evenodd;fill-rule:evenodd;stroke-width:0.264583;image-rendering:optimizeQuality;shape-rendering:geometricPrecision;text-rendering:geometricPrecision"
           fill="#000000"
           d="m 260.04277,164.63149 c 17.15426,-0.35242 34.35217,-0.35242 51.59375,0 -2.87338,6.35688 -7.41522,11.11938 -13.62604,14.2875 -0.13177,0.87762 -0.17595,1.75948 -0.1323,2.64583 -8.0256,0 -16.05147,0 -24.07708,0 0.0437,-0.88635 -5.3e-4,-1.76821 -0.13229,-2.64583 -6.23094,-3.18743 -10.77304,-7.94993 -13.62604,-14.2875 z"
           id="path16" /></g></g></g></svg>
