<svg xmlns="http://www.w3.org/2000/svg" xml:space="preserve" viewBox="0 0 66.9 75.9"><g fill-rule="evenodd" clip-rule="evenodd" image-rendering="optimizeQuality" shape-rendering="geometricPrecision" text-rendering="geometricPrecision"><path fill="#ff0602" d="M20.9 25c.2 4 .3 8 .2 12-4.7.2-9.4.3-14.2.2C3 23.1 7.2 12 19.3 3.8A27.6 27.6 0 0 1 37.5.3a27 27 0 0 1 14 6.4 3576 3576 0 0 0-36.7 18.5l.5.7 5.6-2.7c.2.2.3.5.2.8-2 .6-4 1.4-5.8 2.5l.3.4a47 47 0 0 1 5.3-1.8z"/><path fill="#ff1910" d="M53.4 8.4a5 5 0 0 1 1.6 1.7L33.6 19c-.4-.5-.4-1 0-1.5l19.8-9.1z"/><path fill="#ff0201" d="M60 37H33.6V20.6l23-8.2c5 7.6 6.2 15.8 3.4 24.6z"/><path fill="#ff0a04" d="M31.7 18.2c.5 6.2.7 12.6.6 19h-1.1c-.2-6.4 0-12.7.5-19z"/><path fill="#ff4544" d="M29.3 19.5c.2-.2.5-.3.8-.3v18c-.4.1-.7 0-1-.2h.8c.1-6 0-11.8-.6-17.5z"/><path fill="#fe0000" d="M29.3 19.5c.6 5.7.7 11.6.6 17.5H29c-.1-5.9 0-11.7.2-17.5z"/><path fill="red" d="M27.5 20.3c.3 5.5.3 11 .3 16.7H27V20.6l.5-.3z"/><path fill="#ff9f9f" d="M27.5 20.3c0-.1 0-.2.3-.3.3 5.7.3 11.4 0 17 0-5.6 0-11.2-.3-16.7z"/><path fill="#ff4c4b" d="M27 20.6V37h.8c-.3.2-.7.3-1.1.2 0-5.6 0-11.1.3-16.6z"/><path fill="#ff0904" d="M25.4 21.1c.2 5.3.3 10.7.2 16.1h-1l.1-15.6.7-.5z"/><path fill="#ff0100" d="M23 22.4c.3 4.8.3 9.7.3 14.6h-.8c-.2-5 0-9.8.5-14.6z"/><path fill="#ff6060" d="M23 22.4c0-.1 0-.2.3-.2.2 5 .3 10 .2 15-.4.1-.8 0-1-.2h.8c0-5 0-9.8-.3-14.6z"/><path fill="#fbb" d="M20.9 25s0-.2.2-.2c.4 4.1.4 8.2 0 12.2.1-4 0-8-.2-12z"/><path fill="#ff7776" d="M33.6 20.6V37H60c-8.8.2-17.7.3-26.7.2 0-5.6 0-11.1.3-16.6z"/><path d="M7.6 39c17.2-.3 34.4-.3 51.6 0a29 29 0 0 1-13.6 14.4c-.1.9-.2 1.7-.1 2.6H21.4l-.1-2.6A29 29 0 0 1 7.6 39z"/><path fill="#0a0a0a" d="M27.8 73.2c-1 .1-1.2.4-.6 1-.7.3-.6.6.3.6 0-.3 0-.6.3-.8v2h-4v-5c.5 0 .6-.3.2-.7a26.2 26.2 0 0 0 .8-7.7c.3-.8.8-1.4 1.6-1.8-.6-.1-1.2-.2-1.8-.1v5c-.2 1-.4 2-.4 3.2-.2-.7-.2-1.4-.2-2.1l.4-6.4a17 17 0 0 1 3.9-.2l-.8 10.5c.4.5.3.8-.3 1 .5.3.6.8.6 1.4zm15.6.3c-.5-.3-1-.3-1.4.1l.8.5c-.6.4-.6.7.3.7 0-.3 0-.6.3-.8 0 .6 0 1.2-.3 1.7a26 26 0 0 1-3.7.2v-7l.4 1.4c.1-.4.2-.9.1-1.3.4-1.9.6-3.8.6-5.8v-.3l.7-2c-.3-.1-.6-.2-1-.1v1.6c-.3-.2-.3-.5-.3-.8 0-.5 0-.9.3-1.2 1.2-.2 2.4-.2 3.6.1L43 70.8c.4.5.3.8-.3 1 .5.4.7 1 .6 1.7zm-38.1-13c1 0 1.9 0 2.7.5l1-.2c1 .4 1.6 1 2 2.1a12 12 0 0 1-.2 4 26 26 0 0 1-3.7-.2 1 1 0 0 1-.2-.4c.3-.9.5-1.9.5-2.9-1.4.2-2.2 1-2.5 2.4-1 2.2-.9 4.4.1 6.5.5.2 1 .2 1.6 0A21 21 0 0 0 9 69.5c1.6.8 2 2 .9 3.5a6.1 6.1 0 0 1-6.2 2.7A5.7 5.7 0 0 1 0 70.8c-.5-3.8.7-7 3.6-9.6l1.6-.7z"/><path fill="#525252" d="M5.3 60.5c.4-.2.9-.2 1.4-.2a4 4 0 0 1 2.3.5L8 61a5 5 0 0 0-2.7-.5z"/><path fill="#090909" d="M32.8 60.5c4.3-.7 6.1 1 5.5 5.3H35v-2.4c-.4 0-.7 0-1 .3a3 3 0 0 0-.2 2.1 18 18 0 0 0 2.8 2c2 1.9 2.4 4 1 6.5-2 1.6-4.2 2-6.6 1.2l-2.2-1.2c0-.9.3-1.7.8-2.4l.5-.3c.8.5 1.6 1 2.5 1.2.5.2 1 .2 1.3-.1.3-.6.4-1.2.2-1.9-1.4-.8-2.8-1.8-4-2.9-1.3-3.3-.4-5.8 2.8-7.4zm12.4 0c1.2 0 2.3 0 3.5.2a6 6 0 0 1 1.4 2.2l1.3 3.4c.4-1.9.5-3.8.4-5.8h3.5l-.4 15.1c-1.3.4-2.5.4-3.7 0-.9-2.6-1.9-5.2-3-7.7l-.2 7.7c-1.3.3-2.5.3-3.8.3 0-5.2.3-10.3 1-15.4zm16.9 5.8h2.7l.1 2.7.3-1.9c.1.7.2 1.4.1 2.2l-5 .7c-.3.6-.3 1.2-.3 1.9h6.4v3.4l-10 .6c-.2-5 0-10 .6-14.9l1.4-.3c2.9-.2 5.7-.2 8.5-.2V64c-2.2 0-4.4.3-6.6.5v1.8h1.8zM13 60.5h3.4a119 119 0 0 0-.4 10.9l1 1.3a3 3 0 0 1 1.4-1l.5-1.4.5-9.5c1.1-.3 2.2-.4 3.3-.1.2.2.3.5.3.7l-.4 9c-.4 3.6-2.4 5.5-6 5.5-2.2.2-3.6-.7-4.3-2.7-.3-4.2 0-8.5.6-12.7z"/><path fill="#353535" d="M40 61.6c-.1.3 0 .6.2.8 0 .2 0 .4.3.5v.3a22 22 0 0 0-.6 5.8l-.1 1.3c0-.5-.2-1-.4-1.3 0-2.5.2-5 .5-7.4z"/><path fill="#898989" d="M40.5 63.2c0 2-.2 4-.6 5.8 0-2 .1-4 .6-5.8z"/><path fill="#696969" d="M62.1 66.3c1-.3 2.1-.3 3.2 0 .4 1 .4 2 0 3l-.1-2.2-.3 1.9-.1-2.7H62z"/><path fill="#646464" d="M59.5 68.5h.8c0 .4-.1.7-.5.9l.2.2c-.2.2-.5.2-.8.2 0-.5 0-1 .3-1.3z"/><path fill="#4c4c4c" d="M24.6 65.8h.2c0 1.6-.2 3.2-.8 4.6.4.4.3.6-.2.7-.1-1.5 0-2.9.2-4.2 0 .7 0 1.4.2 2 0-1 .2-2 .4-3z"/><path fill="#777" d="M60.3 70v1.6c2 0 4.1 0 6 .3H60c0-.7 0-1.3.3-1.9z"/><path fill="#494949" d="M27.8 73.2v.8c-.3.2-.4.5-.3.8-.9 0-1-.3-.3-.7-.6-.5-.4-.8.6-.9z"/><path fill="#4b4b4b" d="M43.4 73.5v.5c-.3.2-.4.5-.3.8-.9 0-1-.3-.3-.7a2 2 0 0 1-.8-.5c.5-.4 1-.4 1.4-.1z"/></g></svg>